<svg xmlns="http://www.w3.org/2000/svg" width="640" height="640" viewBox="0 0 640 640" role="img" aria-labelledby="title desc">
  <title id="title">Processing Complex Data course logo</title>
  <desc id="desc">A minimalist map of the Netherlands with a network overlay and a time arrow, representing complex data across space, relations, and time.</desc>
  <defs>
    <style>
      .map { fill: #f7f7f2; stroke: #3f4146; stroke-width: 7; stroke-linejoin: round; }
      .edge { fill: none; stroke: #3f4298; stroke-width: 5; stroke-linecap: round; opacity: 0.86; }
      .node { fill: #a6a000; stroke: #fff; stroke-width: 5; }
      .signal { fill: none; stroke: #777; stroke-width: 4; stroke-dasharray: 5 12; stroke-linecap: round; opacity: 0.7; }
      .time { fill: none; stroke: #3f4146; stroke-width: 6; stroke-linecap: round; stroke-linejoin: round; }
      .label { fill: #3f4146; font: 34px Arial, Helvetica, sans-serif; }
    </style>
  </defs>

  <path class="map" d="M323 77c-25 19-21 44-37 60-17 17-43 16-55 38-12 23 8 44 1 68-6 22-31 31-32 56-1 31 34 43 38 75 4 29-21 43-9 69 11 23 44 22 59 47 15 24 3 56 27 70 23 14 53-10 75-1 28 11 49 45 78 34 25-10 20-45 42-62 19-15 50-12 59-38 9-27-22-43-19-71 3-26 34-38 29-65-5-28-43-31-53-58-9-24 10-49-6-71-17-23-49-13-70-32-20-18-17-52-42-64-23-11-42 11-66 2-22-8-29-38-50-57z" />

  <path class="signal" d="M221 199c77-41 161-41 237 3" />
  <path class="edge" d="M282 207 348 179 420 214 398 300 316 325 257 277 282 207" />
  <path class="edge" d="M257 277 222 354 284 430 374 408 454 350 398 300" />
  <path class="edge" d="M316 325 374 408" />
  <path class="edge" d="M348 179 316 325" />

  <circle class="node" cx="282" cy="207" r="18" />
  <circle class="node" cx="348" cy="179" r="17" />
  <circle class="node" cx="420" cy="214" r="18" />
  <circle class="node" cx="398" cy="300" r="20" />
  <circle class="node" cx="316" cy="325" r="18" />
  <circle class="node" cx="257" cy="277" r="17" />
  <circle class="node" cx="222" cy="354" r="17" />
  <circle class="node" cx="284" cy="430" r="19" />
  <circle class="node" cx="374" cy="408" r="18" />
  <circle class="node" cx="454" cy="350" r="17" />

  <path class="time" d="M145 556h334" />
  <path class="time" d="M479 556l-32-25" />
  <path class="time" d="M479 556l-32 25" />
  <path class="time" d="M181 544v24M257 544v24M333 544v24M409 544v24" />
  <text class="label" x="224" y="528">time</text>
</svg>
